<svg width="8" height="5" viewBox="0 0 8 5" fill="none" xmlns="http://www.w3.org/2000/svg">
<mask id="path-1-inside-1_201_9" fill="white">
<path d="M0 0.5H8L4.10448 4.5L0 0.5Z"/>
</mask>
<path d="M0 0.5V-3.5H-9.83568L-2.79173 3.36465L0 0.5ZM8 0.5L10.8656 3.29076L17.479 -3.5H8V0.5ZM4.10448 4.5L1.31274 7.36465L4.17837 10.1573L6.97008 7.29076L4.10448 4.5ZM0 4.5H8V-3.5H0V4.5ZM5.1344 -2.29076L1.23887 1.70924L6.97008 7.29076L10.8656 3.29076L5.1344 -2.29076ZM6.89621 1.63535L2.79173 -2.36465L-2.79173 3.36465L1.31274 7.36465L6.89621 1.63535Z" fill="#E2F2FF" fill-opacity="0.8" mask="url(#path-1-inside-1_201_9)"/>
</svg>
