<svg width="24" height="24" viewBox="0 0 24 24" fill="none" xmlns="http://www.w3.org/2000/svg">
<path d="M7 18C6.46957 18.0013 5.96139 18.2133 5.58725 18.5893C5.21312 18.9653 5.00367 19.4746 5.005 20.005C5.00633 20.5354 5.21831 21.0436 5.59432 21.4177C5.97033 21.7919 6.47957 22.0013 7.01 22C7.27264 21.9993 7.53259 21.947 7.77499 21.8458C8.01739 21.7447 8.2375 21.5969 8.42275 21.4107C8.608 21.2245 8.75477 21.0037 8.85467 20.7607C8.95458 20.5178 9.00566 20.2576 9.005 19.995C9.00434 19.7324 8.95196 19.4724 8.85085 19.23C8.74973 18.9876 8.60186 18.7675 8.41568 18.5823C8.2295 18.397 8.00865 18.2502 7.76575 18.1503C7.52285 18.0504 7.26264 17.9993 7 18ZM1 2V4H3L6.6 11.59L5.25 14.04C5.08354 14.3442 4.99904 14.6865 5.00481 15.0333C5.01058 15.38 5.10642 15.7193 5.28291 16.0179C5.45941 16.3164 5.7105 16.5639 6.01153 16.7361C6.31257 16.9083 6.6532 16.9992 7 17H19V15H7.42C7.3537 15 7.29011 14.9737 7.24322 14.9268C7.19634 14.8799 7.17 14.8163 7.17 14.75L7.2 14.63L8.1 13H15.55C15.9071 13.0002 16.2577 12.9047 16.5654 12.7236C16.8732 12.5425 17.1268 12.2823 17.3 11.97L20.88 5.48C20.9634 5.32751 21.0057 5.15591 21.0026 4.98211C20.9995 4.80831 20.9511 4.63833 20.8623 4.48892C20.7734 4.33951 20.6472 4.21584 20.496 4.1301C20.3448 4.04437 20.1738 3.99952 20 4H5.21L4.27 2H1ZM17 18C16.4696 18.0013 15.9614 18.2133 15.5873 18.5893C15.2131 18.9653 15.0037 19.4746 15.005 20.005C15.0063 20.5354 15.2183 21.0436 15.5943 21.4177C15.9703 21.7919 16.4796 22.0013 17.01 22C17.2726 21.9993 17.5326 21.947 17.775 21.8458C18.0174 21.7447 18.2375 21.5969 18.4227 21.4107C18.608 21.2245 18.7548 21.0037 18.8547 20.7607C18.9546 20.5178 19.0057 20.2576 19.005 19.995C19.0043 19.7324 18.952 19.4724 18.8508 19.23C18.7497 18.9876 18.6019 18.7675 18.4157 18.5823C18.2295 18.397 18.0086 18.2502 17.7657 18.1503C17.5228 18.0504 17.2626 17.9993 17 18Z" fill="#E2F2FF"/>
</svg>
