<svg width="24" height="24" viewBox="0 0 24 24" fill="none" xmlns="http://www.w3.org/2000/svg">
<path d="M16.5002 2.99999C14.7602 2.99999 13.0902 3.80999 12.0002 5.08999C11.443 4.44035 10.753 3.91767 9.9768 3.55715C9.20056 3.19663 8.35608 3.00664 7.50023 2.99999C6.7761 2.99331 6.05791 3.13102 5.3876 3.40505C4.7173 3.67909 4.10833 4.08397 3.59627 4.59602C3.08421 5.10808 2.67934 5.71705 2.4053 6.38736C2.13126 7.05766 1.99356 7.77586 2.00023 8.49999C2.00023 12.28 5.40023 15.36 10.5502 20.04L12.0002 21.35L13.4502 20.03C18.6002 15.36 22.0002 12.28 22.0002 8.49999C22.0002 5.41999 19.5802 2.99999 16.5002 2.99999ZM12.1002 18.55L12.0002 18.65L11.9002 18.55C7.14023 14.24 4.00023 11.39 4.00023 8.49999C4.00023 6.49999 5.50023 4.99999 7.50023 4.99999C8.26057 5.00254 9.00357 5.22729 9.63785 5.64658C10.2721 6.06588 10.77 6.66144 11.0702 7.35999H12.9402C13.2377 6.66146 13.7335 6.06553 14.3663 5.64604C14.9991 5.22655 15.741 5.00192 16.5002 4.99999C18.5002 4.99999 20.0002 6.49999 20.0002 8.49999C20.0002 11.39 16.8602 14.24 12.1002 18.55Z" fill="#E2F2FF"/>
</svg>
