<svg width="24" height="24" viewBox="0 0 24 24" fill="none" xmlns="http://www.w3.org/2000/svg">
<path d="M6.6 10.8C8.1 13.6 10.4 15.9 13.2 17.4L15.4 15.2C15.5229 15.0627 15.6813 14.9621 15.8577 14.9091C16.0342 14.8562 16.2219 14.853 16.4 14.9C17.6 15.3 18.8 15.5 20 15.5C20.6 15.5 21 16 21 16.5V20C21 20.6 20.5 21 20 21C15.4913 21 11.1673 19.2089 7.97918 16.0208C4.79107 12.8327 3 8.50868 3 4C3 3.4 3.5 3 4 3H7.5C8.1 3 8.5 3.5 8.5 4C8.5 5.3 8.7 6.5 9.1 7.6C9.1 7.9 9.1 8.3 8.8 8.6L6.6 10.8Z" fill="#193965"/>
</svg>
