<svg width="44" height="41" viewBox="0 0 44 41" fill="none" xmlns="http://www.w3.org/2000/svg">
<path d="M25.4999 22.5H24.6999L24.3999 22.2C25.3999 21.1 25.9999 19.6 25.9999 18C25.991 16.521 25.478 15.0893 24.5456 13.9412C23.6131 12.7931 22.317 11.9974 20.8713 11.6854C19.4256 11.3733 17.9166 11.5637 16.5937 12.225C15.2708 12.8863 14.2129 13.979 13.5948 15.3227C12.9767 16.6664 12.8354 18.1807 13.1941 19.6155C13.5528 21.0504 14.3901 22.32 15.5678 23.2147C16.7455 24.1095 18.1931 24.5758 19.6716 24.5368C21.1501 24.4978 22.5711 23.9557 23.6999 23L23.9999 23.2V24L28.9999 29L30.4999 27.5L25.4999 22.5ZM19.4999 22.5C18.9089 22.5 18.3238 22.3836 17.7778 22.1575C17.2318 21.9313 16.7358 21.5999 16.3179 21.182C15.9 20.7641 15.5686 20.2681 15.3424 19.7221C15.1163 19.1761 14.9999 18.591 14.9999 18C14.9999 17.4091 15.1163 16.8239 15.3424 16.2779C15.5686 15.732 15.9 15.2359 16.3179 14.818C16.7358 14.4002 17.2318 14.0687 17.7778 13.8426C18.3238 13.6164 18.9089 13.5 19.4999 13.5C20.6934 13.5 21.838 13.9741 22.6819 14.818C23.5258 15.6619 23.9999 16.8065 23.9999 18C23.9999 19.1935 23.5258 20.3381 22.6819 21.182C21.838 22.0259 20.6934 22.5 19.4999 22.5Z" fill="white"/>
</svg>
